# xmcd
#
# Track frame offsets:
#	150
#	31423
#	46573
#	68023
#	88196
#	118309
#	134584
#	153934
#	176091
#	202265
#	215315
#	233690
#	250265
#	258740
#	276169
#	284869
#	304594
#	314869
#	326494
#
# Disc length: 4539 seconds
#
# Revision: 0
# Processed by: cddbd v1.5.2PL0 Copyright (c) Steve Scherf et al.
# Submitted via: dBpowerAMP V4.0
#
DISCID=2a11b913
DTITLE=Earl Hooker - Hooker 'n Steve and Do You Remember The Great Earl Hooker [Vinyl-Rip]
DYEAR=1900
DGENRE=Blues
TTITLE0=The Moon Is Rising
TTITLE1=Earl's Blues
TTITLE2=Conversion Blues
TTITLE3=Guitar Rag
TTITLE4=Hooker 'n Steve
TTITLE5=I'm Your Man
TTITLE6=New Riviera
TTITLE7=Strung-Out Woman Blues
TTITLE8=Two Bugs In Rug
TTITLE9=Hold On I'm Coming
TTITLE10=Off The Hook
TTITLE11=Dust My Broom
TTITLE12=Hot And Heavy
TTITLE13=Bertha
TTITLE14=The Foxtrot
TTITLE15=End Of The Blues
TTITLE16=Walking The Floor
TTITLE17=Hooker Special
TTITLE18=Something You Ate
EXTD=Track #1-8 Hooker 'n Steve\nTrack 9-19 Do You Remember The Great Earl Hooker
EXTT0=
EXTT1=
EXTT2=
EXTT3=
EXTT4=
EXTT5=
EXTT6=
EXTT7=
EXTT8=
EXTT9=
EXTT10=
EXTT11=
EXTT12=
EXTT13=
EXTT14=
EXTT15=
EXTT16=
EXTT17=
EXTT18=
PLAYORDER=
